<?xml version="1.0" standalone="no"?>
<!DOCTYPE svg PUBLIC "-//W3C//DTD SVG 20010904//EN"
 "http://www.w3.org/TR/2001/REC-SVG-20010904/DTD/svg10.dtd">
<svg version="1.0" xmlns="http://www.w3.org/2000/svg"
 width="48" height="64" viewBox="0 0 64.000000 64.000000"
 preserveAspectRatio="xMidYMid meet">

<g transform="translate(0.000000,64.000000) scale(0.100000,-0.100000)"
fill="#f2f2f2" stroke="none">
<path d="M247 630 c-57 -15 -112 -46 -153 -87 -119 -119 -119 -328 1 -448 121
-121 326 -121 449 0 121 120 122 329 1 450 -72 71 -203 109 -298 85z m72 -71
c23 -8 31 -17 31 -35 0 -21 -5 -24 -35 -24 -33 0 -35 2 -35 35 0 19 2 35 4 35
1 0 17 -5 35 -11z m65 -79 c18 -17 -7 -30 -55 -30 -56 0 -89 13 -89 35 0 12
13 13 68 8 37 -3 71 -9 76 -13z m-48 -40 c47 0 54 -2 54 -20 0 -17 -7 -20 -52
-22 l-53 -2 53 -3 c44 -3 52 -7 52 -24 0 -20 -15 -24 -75 -20 -27 2 -32 -3
-47 -41 -24 -57 -23 -109 2 -135 26 -29 52 -36 84 -23 40 15 50 53 31 111 -9
27 -21 51 -26 54 -16 10 -10 25 10 25 25 0 78 -64 93 -112 29 -96 -102 -195
-195 -147 -71 37 -105 102 -87 168 12 46 54 101 78 101 12 0 13 3 4 12 -18 18
-15 38 6 39 16 1 16 2 0 6 -10 2 -18 14 -18 25 0 14 5 18 16 14 9 -3 40 -6 70
-6z"/>
</g>
</svg>
